<svg width="240" height="240" viewBox="0 0 240 240" fill="none" xmlns="http://www.w3.org/2000/svg">
<g clip-path="url(#clip0_1326:12531)">
<path d="M188 73H142.673V88.1081H188V73ZM112.445 88.1081H97.3364V103.225H112.445V88.1081ZM97.3364 163.667H112.445V118.333H97.3364V163.667ZM127.555 88.1081V103.225H142.673V88.1081H127.555ZM127.555 163.667H142.673V118.333H127.555V163.667ZM127.555 73H112.445V88.1081H127.555V73ZM52 73V88.1081H97.3364V73H52ZM188 118.333V103.225H142.673V118.333H188ZM112.445 103.225V118.333H127.555V103.225H112.445ZM52 103.225V118.333H97.3364V103.225H52Z" fill="black"/>
</g>
<defs>
<clipPath id="clip0_1326:12531">
<rect width="136" height="90.6667" fill="white" transform="translate(52 73)"/>
</clipPath>
</defs>
</svg>
