<svg width="50" height="50" viewBox="0 0 241 241" fill="none" xmlns="http://www.w3.org/2000/svg">
<path d="M164.594 95.4479H135.265V105.115H164.594V95.4479ZM115.713 105.115H105.936V114.781H115.713V105.115ZM105.936 153.448H115.713V124.448H105.936V153.448ZM125.489 105.115V114.781H135.265V105.115H125.489ZM125.489 153.448H135.265V124.448H125.489V153.448ZM125.489 95.4479H115.713V105.115H125.489V95.4479ZM76.6008 95.4479V105.115H105.936V95.4479H76.6008ZM164.601 124.448V114.781H135.265V124.448H164.601ZM115.719 114.781V124.448H125.489V114.781H115.719ZM76.6073 114.781V124.448H105.943V114.781H76.6073Z" fill="white"/>
<path fill-rule="evenodd" clip-rule="evenodd" d="M120.449 238.449C185.618 238.449 238.449 185.618 238.449 120.449C238.449 55.279 185.618 2.44861 120.449 2.44861C55.2791 2.44861 2.44873 55.279 2.44873 120.449C2.44873 185.618 55.2791 238.449 120.449 238.449ZM120.449 240.449C186.723 240.449 240.449 186.723 240.449 120.449C240.449 54.1744 186.723 0.448608 120.449 0.448608C54.1746 0.448608 0.448731 54.1744 0.44873 120.449C0.44873 186.723 54.1746 240.449 120.449 240.449Z" fill="white"/>
<path d="M27.3244 115.949L30.3649 115.836L30.8984 130.161L27.8579 130.274L27.659 124.934L13.2571 125.47L13.1213 121.825L27.5233 121.289L27.3244 115.949Z" fill="white"/>
<path d="M14.0193 137.069L31.0021 133.039L31.8543 136.629L24.8472 138.292L26.5771 145.581L33.5842 143.918L34.4344 147.501L17.4516 151.531L16.6014 147.949L23.6167 146.284L21.8868 138.995L14.8715 140.66L14.0193 137.069Z" fill="white"/>
<path d="M19.663 158.468L35.5087 151.148L38.3965 157.4C38.9493 158.597 39.207 159.717 39.1696 160.761C39.1398 161.807 38.8379 162.732 38.2639 163.535C37.6975 164.342 36.8907 164.986 35.8436 165.47C34.7914 165.956 33.7813 166.147 32.8134 166.044C31.8506 165.938 30.9691 165.547 30.1689 164.871C29.371 164.201 28.691 163.257 28.1286 162.04L26.1951 157.854L28.8877 156.61L30.571 160.254C30.8664 160.894 31.1995 161.385 31.5703 161.727C31.9411 162.069 32.3495 162.262 32.7955 162.306C33.244 162.356 33.7287 162.26 34.2496 162.019C34.7758 161.776 35.1705 161.466 35.4339 161.087C35.6996 160.714 35.8265 160.271 35.8144 159.757C35.8099 159.246 35.6587 158.668 35.3609 158.023L34.3173 155.764L21.2105 161.818L19.663 158.468ZM30.8269 163.694L25.435 170.964L23.7266 167.265L29.1578 160.081L30.8269 163.694Z" fill="white"/>
<path d="M28.5425 176.594L42.7771 166.493L49.5837 176.084L47.1024 177.845L42.4315 171.263L39.0396 173.67L43.3603 179.758L40.879 181.519L36.5583 175.431L33.1595 177.843L37.8502 184.453L35.3688 186.213L28.5425 176.594Z" fill="white"/>
<path d="M55.2935 189.602C55.724 189.062 55.8866 188.475 55.7815 187.842C55.6763 187.208 55.306 186.582 54.6706 185.964C54.2389 185.544 53.8149 185.251 53.3988 185.084C52.9866 184.913 52.598 184.856 52.2332 184.913C51.8724 184.974 51.5613 185.14 51.2998 185.408C51.0738 185.624 50.9305 185.865 50.8698 186.132C50.8133 186.401 50.8173 186.687 50.8817 186.987C50.9501 187.284 51.0608 187.593 51.214 187.917C51.3711 188.236 51.5564 188.559 51.7698 188.885L52.6325 190.248C53.0594 190.901 53.4019 191.551 53.6599 192.198C53.918 192.846 54.0694 193.48 54.1142 194.103C54.159 194.725 54.0769 195.327 53.868 195.908C53.6631 196.494 53.3092 197.049 52.8062 197.574C52.0573 198.336 51.2161 198.81 50.2824 198.995C49.3568 199.181 48.381 199.076 47.3549 198.68C46.3369 198.284 45.3188 197.591 44.3006 196.601C43.2905 195.618 42.5613 194.608 42.113 193.57C41.6688 192.535 41.532 191.51 41.7028 190.495C41.8816 189.48 42.3986 188.513 43.2538 187.593L45.8136 190.083C45.434 190.53 45.2135 190.997 45.1519 191.484C45.0984 191.971 45.1815 192.46 45.4012 192.951C45.629 193.443 45.971 193.91 46.4272 194.354C46.8752 194.789 47.3275 195.103 47.7842 195.293C48.245 195.488 48.6799 195.558 49.089 195.504C49.4981 195.45 49.8492 195.273 50.1424 194.971C50.4157 194.69 50.562 194.373 50.5812 194.019C50.6045 193.669 50.5227 193.272 50.3357 192.829C50.1528 192.389 49.8868 191.893 49.5376 191.339L48.508 189.672C47.7027 188.389 47.2601 187.178 47.18 186.038C47.0999 184.898 47.5116 183.868 48.415 182.947C49.1478 182.186 49.9931 181.72 50.9511 181.55C51.9131 181.384 52.9071 181.491 53.9329 181.87C54.9587 182.25 55.9278 182.883 56.8401 183.771C57.7687 184.674 58.4247 185.621 58.8081 186.612C59.1956 187.607 59.3074 188.576 59.1437 189.519C58.9799 190.461 58.5416 191.311 57.8289 192.068L55.2935 189.602Z" fill="white"/>
<path d="M54.478 205.706L63.9674 191.056L67.0647 193.063L63.1494 199.107L69.4371 203.18L73.3523 197.135L76.4425 199.137L66.9532 213.787L63.863 211.785L67.7829 205.734L61.4953 201.661L57.5754 207.712L54.478 205.706Z" fill="white"/>
<path d="M91.7125 215.049C91.042 216.83 90.1338 218.219 88.9881 219.214C87.8477 220.211 86.5738 220.822 85.1664 221.045C83.7663 221.264 82.3457 221.103 80.9046 220.561C79.4529 220.014 78.2742 219.194 77.3685 218.1C76.4628 217.007 75.9101 215.709 75.7105 214.207C75.5109 212.705 75.7453 211.066 76.4139 209.29C77.0844 207.509 77.9899 206.119 79.1303 205.122C80.2707 204.125 81.5409 203.516 82.941 203.296C84.3432 203.071 85.7701 203.232 87.2218 203.778C88.6628 204.321 89.8362 205.139 90.7419 206.233C91.655 207.323 92.2113 208.619 92.4109 210.121C92.6159 211.625 92.3831 213.267 91.7125 215.049ZM88.2109 213.731C88.6453 212.577 88.8387 211.539 88.7913 210.616C88.7492 209.696 88.4942 208.914 88.0262 208.27C87.5581 207.627 86.9067 207.148 86.0718 206.833C85.237 206.519 84.4314 206.45 83.6551 206.625C82.8788 206.8 82.1688 207.219 81.5249 207.881C80.8863 208.545 80.3498 209.454 79.9155 210.608C79.4811 211.762 79.285 212.799 79.3271 213.72C79.3745 214.642 79.6322 215.425 80.1002 216.069C80.5683 216.712 81.2197 217.191 82.0546 217.506C82.8894 217.82 83.695 217.889 84.4713 217.714C85.2475 217.539 85.955 217.119 86.5935 216.455C87.2374 215.793 87.7765 214.885 88.2109 213.731Z" fill="white"/>
<path d="M95.2024 225.017L98.1003 207.805L101.739 208.417L99.3467 222.629L106.726 223.872L106.221 226.872L95.2024 225.017Z" fill="white"/>
<path d="M119.505 227.693L113.318 227.804L113.005 210.352L119.243 210.24C120.998 210.209 122.516 210.531 123.795 211.207C125.074 211.877 126.066 212.857 126.771 214.146C127.482 215.434 127.854 216.985 127.886 218.797C127.919 220.615 127.603 222.183 126.939 223.502C126.281 224.821 125.319 225.841 124.053 226.563C122.793 227.284 121.277 227.661 119.505 227.693ZM116.951 224.576L119.295 224.534C120.385 224.515 121.299 224.305 122.037 223.905C122.779 223.5 123.331 222.885 123.691 222.06C124.057 221.23 124.228 220.164 124.205 218.863C124.182 217.573 123.973 216.523 123.577 215.712C123.188 214.9 122.617 214.308 121.866 213.935C121.115 213.562 120.194 213.386 119.104 213.405L116.752 213.447L116.951 224.576Z" fill="white"/>
<path d="M153.028 204.107L158.398 220.715L155.365 221.696L144.76 213.579L144.638 213.618L148.018 224.071L144.506 225.206L139.137 208.598L142.218 207.602L152.764 215.729L152.91 215.682L149.533 205.237L153.028 204.107Z" fill="white"/>
<path d="M165.363 217.847L156.889 202.587L167.172 196.877L168.649 199.537L161.593 203.456L163.612 207.092L170.139 203.467L171.616 206.127L165.089 209.752L167.112 213.395L174.198 209.46L175.675 212.12L165.363 217.847Z" fill="white"/>
<path d="M172.253 197.519L170.316 195.173L181.37 186.046L183.307 188.393L179.186 191.795L188.362 202.909L185.549 205.231L176.374 194.117L172.253 197.519Z" fill="white"/>
<path d="M199.89 192.212L182.982 185.598L185.427 182.393L196.822 187.45L196.91 187.335L189.2 177.446L191.293 174.701L202.884 179.543L202.977 179.421L195.065 169.754L197.51 166.548L208.361 181.104L206.18 183.964L195.09 179.687L195.007 179.795L202.071 189.352L199.89 192.212Z" fill="white"/>
<path d="M212.99 152.811C214.742 153.554 216.092 154.519 217.039 155.705C217.989 156.885 218.546 158.183 218.711 159.598C218.873 161.006 218.654 162.419 218.052 163.837C217.447 165.265 216.579 166.409 215.449 167.269C214.319 168.129 212.999 168.627 211.491 168.765C209.982 168.903 208.354 168.601 206.607 167.86C204.855 167.117 203.504 166.155 202.554 164.975C201.604 163.794 201.048 162.5 200.886 161.092C200.719 159.682 200.938 158.263 201.544 156.835C202.145 155.417 203.011 154.278 204.141 153.419C205.268 152.551 206.586 152.049 208.095 151.911C209.606 151.768 211.237 152.068 212.99 152.811ZM211.529 156.256C210.394 155.774 209.364 155.538 208.441 155.548C207.519 155.552 206.728 155.775 206.065 156.216C205.403 156.657 204.898 157.288 204.549 158.109C204.201 158.931 204.098 159.733 204.242 160.515C204.385 161.298 204.774 162.025 205.409 162.696C206.047 163.361 206.933 163.934 208.068 164.416C209.203 164.897 210.231 165.136 211.153 165.132C212.076 165.122 212.869 164.897 213.531 164.456C214.194 164.014 214.699 163.383 215.047 162.562C215.396 161.741 215.498 160.939 215.355 160.156C215.212 159.373 214.822 158.649 214.184 157.984C213.549 157.313 212.664 156.737 211.529 156.256Z" fill="white"/>
<path d="M223.195 149.493L206.079 146.07L207.429 139.317C207.688 138.025 208.14 136.968 208.785 136.147C209.426 135.319 210.214 134.749 211.152 134.438C212.084 134.121 213.116 134.075 214.247 134.301C215.384 134.529 216.312 134.969 217.033 135.623C217.749 136.276 218.231 137.111 218.479 138.129C218.729 139.141 218.722 140.304 218.459 141.619L217.555 146.14L214.647 145.558L215.434 141.622C215.572 140.931 215.592 140.338 215.494 139.844C215.396 139.349 215.18 138.952 214.846 138.654C214.512 138.349 214.064 138.141 213.502 138.029C212.933 137.915 212.431 137.933 211.996 138.084C211.561 138.229 211.197 138.512 210.904 138.935C210.607 139.35 210.388 139.906 210.249 140.603L209.761 143.043L223.918 145.874L223.195 149.493ZM217.254 138.692L225.894 135.996L225.095 139.991L216.474 142.595L217.254 138.692Z" fill="white"/>
<path d="M226.677 130.019L209.224 129.793L209.272 126.103L216.968 126.202L216.971 125.972L209.357 119.592L209.414 115.169L217.145 121.747L226.868 115.318L226.811 119.733L219.573 124.421L221.765 126.264L226.725 126.329L226.677 130.019Z" fill="white"/>
<path d="M48.0908 65.2988L35.2196 53.5093L39.8709 48.4312C40.7651 47.4549 41.7134 46.794 42.7157 46.4485C43.7137 46.0991 44.7067 46.0455 45.6946 46.2877C46.6821 46.5218 47.6032 47.0304 48.4579 47.8133C49.3126 48.5962 49.8979 49.4713 50.2138 50.4387C50.5297 51.4061 50.5495 52.4066 50.2731 53.4402C50.0005 54.4696 49.4114 55.4787 48.5057 56.4675L45.541 59.7041L43.3602 57.7066L45.9219 54.9099C46.4017 54.3861 46.7069 53.8721 46.8376 53.3677C46.9679 52.8552 46.9485 52.3675 46.7794 51.9044C46.6099 51.4333 46.3136 51.0039 45.8905 50.6163C45.4631 50.2248 45.0115 49.9692 44.5357 49.8493C44.0596 49.7214 43.5762 49.7486 43.0856 49.931C42.5907 50.1095 42.1015 50.4627 41.6179 50.9907L39.937 52.8258L50.5834 62.5775L48.0908 65.2988Z" fill="white"/>
<path d="M66.4549 37.0612C67.5807 38.596 68.2475 40.1151 68.4555 41.6185C68.668 43.1186 68.4832 44.519 67.9012 45.8197C67.3204 47.1125 66.4092 48.2142 65.1676 49.125C63.9169 50.0424 62.5861 50.5817 61.1752 50.7429C59.7643 50.9041 58.3754 50.658 57.0084 50.0049C55.6414 49.3517 54.3967 48.26 53.2742 46.7298C52.1484 45.195 51.4792 43.6776 51.2667 42.1775C51.0542 40.6775 51.2384 39.2811 51.8192 37.9883C52.3966 36.6909 53.3107 35.5835 54.5615 34.6661C55.803 33.7554 57.1292 33.2194 58.5401 33.0582C59.9522 32.8891 61.3418 33.1312 62.7088 33.7844C64.0804 34.4342 65.3291 35.5265 66.4549 37.0612ZM63.438 39.2742C62.7088 38.2801 61.9449 37.5509 61.1463 37.0867C60.3524 36.6192 59.558 36.4056 58.7632 36.446C57.9684 36.4865 57.2114 36.7705 56.4921 37.2981C55.7729 37.8257 55.2746 38.4625 54.9973 39.2085C54.7201 39.9544 54.6829 40.7779 54.8859 41.679C55.0934 42.5767 55.5618 43.5227 56.291 44.5168C57.0203 45.511 57.7819 46.2418 58.5759 46.7094C59.3744 47.1736 60.171 47.3855 60.9658 47.345C61.7606 47.3046 62.5177 47.0206 63.2369 46.493C63.9562 45.9653 64.4545 45.3285 64.7317 44.5826C65.009 43.8366 65.0439 43.0148 64.8363 42.1171C64.6334 41.216 64.1673 40.2684 63.438 39.2742Z" fill="white"/>
<path d="M78.2374 40.183L67.0869 25.8557L70.8266 24.3505L78.0352 34.5223L78.1696 34.4682L76.5982 22.0274L79.8003 20.7385L87.2873 30.826L87.4296 30.7687L85.5719 18.4155L89.3116 16.9102L91.1958 34.9672L87.8593 36.3101L80.5148 26.9647L80.3883 27.0156L81.5738 38.8401L78.2374 40.183Z" fill="white"/>
<path d="M97.8139 32.9307L95.0993 15.6886L106.718 13.8594L107.191 16.865L99.2179 18.1202L99.8648 22.2287L107.24 21.0676L107.713 24.0732L100.338 25.2343L100.986 29.3512L108.993 28.0907L109.466 31.0963L97.8139 32.9307Z" fill="white"/>
<path d="M114.075 30.4813L114.571 13.0338L121.454 13.2294C122.772 13.2669 123.89 13.5345 124.808 14.0324C125.732 14.5248 126.425 15.2067 126.89 16.0782C127.359 16.9442 127.578 17.9536 127.545 19.1066C127.512 20.2652 127.234 21.2548 126.711 22.0755C126.187 22.8905 125.445 23.5061 124.484 23.9221C123.529 24.3383 122.381 24.5274 121.04 24.4893L116.431 24.3583L116.516 21.3935L120.528 21.5076C121.232 21.5276 121.82 21.4477 122.291 21.2678C122.763 21.088 123.117 20.8082 123.355 20.4284C123.599 20.0488 123.729 19.5722 123.746 18.9986C123.762 18.4193 123.66 17.9275 123.438 17.5233C123.222 17.1193 122.881 16.8084 122.416 16.5905C121.956 16.3671 121.371 16.2453 120.661 16.2252L118.174 16.1544L117.763 30.5861L114.075 30.4813ZM123.723 22.8091L127.833 30.8723L123.761 30.7566L119.744 22.696L123.723 22.8091Z" fill="white"/>
<path d="M131.2 31.1379L134.892 14.0783L146.387 16.5661L145.744 19.5399L137.855 17.8327L136.975 21.8976L144.272 23.4769L143.629 26.4506L136.332 24.8714L135.45 28.9447L143.372 30.6592L142.728 33.6329L131.2 31.1379Z" fill="white"/>
<path d="M152.499 36.9561L146.806 34.5317L153.645 18.4728L159.385 20.9172C161 21.6051 162.254 22.5188 163.146 23.6582C164.04 24.7924 164.546 26.0917 164.663 27.5559C164.786 29.0224 164.492 30.5894 163.782 32.257C163.07 33.9298 162.141 35.2327 160.997 36.1656C159.857 37.1008 158.563 37.6394 157.113 37.7815C155.668 37.9258 154.13 37.6507 152.499 36.9561ZM151.441 33.0686L153.597 33.9869C154.601 34.4143 155.52 34.5961 156.357 34.5323C157.2 34.4655 157.955 34.1291 158.621 33.5233C159.294 32.9145 159.885 32.0115 160.395 30.8144C160.9 29.6277 161.138 28.5835 161.108 27.6815C161.084 26.7818 160.805 26.0084 160.272 25.3613C159.738 24.7142 158.97 24.177 157.966 23.7495L155.802 22.8279L151.441 33.0686Z" fill="white"/>
<path d="M170.251 46.0768L181.32 32.581L186.723 37.013C187.716 37.8273 188.423 38.6537 188.845 39.4921C189.267 40.3305 189.431 41.1481 189.336 41.9447C189.245 42.7369 188.922 43.4713 188.367 44.1479C187.934 44.675 187.449 45.052 186.91 45.2789C186.375 45.5013 185.818 45.5886 185.24 45.5407C184.67 45.4921 184.107 45.3277 183.55 45.0476L183.442 45.1794C183.938 45.6229 184.3 46.1624 184.529 46.7979C184.761 47.4371 184.82 48.1135 184.705 48.8274C184.593 49.5369 184.266 50.2233 183.721 50.8866C183.134 51.6027 182.432 52.096 181.615 52.3665C180.806 52.6361 179.923 52.6507 178.967 52.4101C178.01 52.1695 177.027 51.6348 176.017 50.806L170.251 46.0768ZM175.017 46.0843L177.343 47.9922C178.139 48.6444 178.843 48.9685 179.456 48.9644C180.073 48.956 180.59 48.6969 181.008 48.1873C181.315 47.8139 181.495 47.4106 181.549 46.9773C181.603 46.544 181.53 46.1091 181.329 45.6728C181.133 45.24 180.806 44.8362 180.35 44.4615L177.957 42.4995L175.017 46.0843ZM179.541 40.5687L181.656 42.3037C182.047 42.6244 182.45 42.8409 182.865 42.9533C183.288 43.065 183.692 43.0655 184.076 42.9548C184.465 42.8477 184.806 42.6163 185.098 42.2604C185.498 41.7728 185.647 41.2373 185.545 40.6539C185.447 40.0741 185.082 39.5248 184.449 39.0059L182.281 37.2277L179.541 40.5687Z" fill="white"/>
<path d="M195.715 44.5803L198.361 47.7557L195.135 55.6257L195.244 55.7566L203.566 54.0018L206.213 57.1773L193.468 59.5105L188.728 63.4608L186.382 60.6454L191.122 56.6951L195.715 44.5803Z" fill="white"/>
</svg>
