<svg width="250" height="250" viewBox="0 0 657 160" fill="none" xmlns="http://www.w3.org/2000/svg">
<g clip-path="url(#clip0_1326:12500)">
<path d="M583.696 85.1128H574.714V58.8403H583.716C593.107 58.8403 597.376 59.6912 597.376 72.042C597.376 83.4059 593.172 85.1329 583.716 85.1329L583.696 85.1128ZM584.96 94.9864C600.795 94.9864 608.02 89.9967 608.02 72.0621C608.02 52.748 600.07 49.007 584.96 49.007H564.533V94.9864H584.96ZM556.321 84.8057H530.356V49.007H520.175V94.9864H556.301L556.321 84.8057ZM487.81 86.1198C478.088 86.1198 474.342 84.1511 474.342 72.0621C474.342 59.515 478.088 57.8736 487.81 57.8736C497.533 57.8736 501.339 59.5804 501.339 72.0621C501.339 84.1461 497.533 86.1198 487.81 86.1198ZM487.81 95.9732C504.295 95.9732 511.978 90.6513 511.978 72.0621C511.978 52.748 503.57 48.0201 487.81 48.0201C472.051 48.0201 463.703 52.748 463.703 72.0621C463.703 90.6513 471.321 95.9732 487.81 95.9732ZM455.491 94.9662V48.9869H445.315V66.9416H422.32V48.9869H412.139V94.9662H422.32V77.0367H445.315V94.9662H455.491ZM381.789 95.9732C398.54 95.9732 403.202 90.5858 403.202 81.3265C403.202 72.8526 398.671 69.8971 389.668 68.1852L377.081 65.7584C373.013 64.9679 371.497 63.7846 371.497 61.4182C371.497 59.1877 373.209 57.219 381.814 57.219C388.712 57.219 391.884 58.5936 392.256 64.706H402.769C402.306 52.2898 395.806 48.0201 381.683 48.0201C366.115 48.0201 360.924 53.9312 360.924 61.6146C360.924 69.298 364.67 73.195 372.811 74.8163L386.345 77.5754C389.824 78.2954 392.518 78.7586 392.518 81.9105C392.518 85.0624 390.504 86.7693 381.748 86.7693C374.523 86.7693 371.175 85.0624 370.908 78.8241H359.806C359.937 91.3058 366.442 95.943 381.814 95.943L381.789 95.9732ZM352.384 84.7754H321.792V77.0367H351.664V66.9416H321.792V59.1676H352.002V48.9869H311.611V94.9662H352.339L352.384 84.7754ZM249.535 94.9662V48.9869H239.354V66.9416H216.365V48.9869H206.184V94.9662H216.365V77.0367H239.354V94.9662H249.535ZM198.954 48.9869H157.964V59.1676H173.336V94.9662H183.496V59.1676H198.954V48.9869ZM270.883 68.8901V59.1676H286.21C289.956 59.1676 292.186 61.3981 292.186 64.0918C292.186 66.7855 289.956 68.8901 286.21 68.8901H270.883ZM270.883 79.0708H283.889L292.362 94.9662H304.059L294.402 77.2331C299.724 74.6048 302.352 69.4137 302.352 63.9609C302.352 56.1466 296.813 48.9869 285.993 48.9869H260.703V94.9662H270.883V79.0708Z" fill="black"/>
<path d="M116.974 48.9869H93.9844V56.6501H116.974V48.9869ZM78.658 56.6501H70.9947V64.3133H78.658V56.6501ZM70.9947 94.9662H78.658V71.9766H70.9947V94.9662ZM86.3212 56.6501V64.3133H93.9844V56.6501H86.3212ZM86.3212 94.9662H93.9844V71.9766H86.3212V94.9662ZM86.3212 48.9869H78.658V56.6501H86.3212V48.9869ZM48 48.9869V56.6501H70.9947V48.9869H48ZM116.979 71.9766V64.3133H93.9844V71.9766H116.979ZM78.663 64.3133V71.9766H86.3212V64.3133H78.663ZM48.005 64.3133V71.9766H70.9998V64.3133H48.005Z" fill="black"/>
</g>
<defs>
<clipPath id="clip0_1326:12500">
<rect width="560" height="47.9531" fill="white" transform="translate(48 48)"/>
</clipPath>
</defs>
</svg>
